HIERARCHY
ROOT pelvis
{
  OFFSET 0 100 0
  CHANNELS 6 Xposition Yposition Zposition Zrotation Xrotation Yrotation
  JOINT pelvis_right_femur
  {
    OFFSET -10.78128 -3.44521 -0.5502486
    CHANNELS 3 Zrotation Xrotation Yrotation
    JOINT right_femur_tibia
    {
      OFFSET -0.8047443 -44.0398 -0.1307829
      CHANNELS 3 Zrotation Xrotation Yrotation
      JOINT right_tibia_foot
      {
        OFFSET 3.006224 -47.83518 -5
        CHANNELS 3 Zrotation Xrotation Yrotation
        End Site
        {
          OFFSET 0 -5 15
        }
      }
    }
  }
  JOINT pelvis_left_femur
  {
    OFFSET 10.78128 -3.44521 -0.5502486
    CHANNELS 3 Zrotation Xrotation Yrotation
    JOINT left_femur_tibia
    {
      OFFSET 0.8047443 -44.0398 -0.1307829
      CHANNELS 3 Zrotation Xrotation Yrotation
      JOINT left_tibia_foot
      {
        OFFSET -4.370144 -48.10324 -4.275266
        CHANNELS 3 Zrotation Xrotation Yrotation
        End Site
        {
          OFFSET 0 -5 15
        }
      }
    }
  }
  JOINT pelvis_spine1
  {
    OFFSET 0 6.468898 -3.129235
    CHANNELS 3 Zrotation Xrotation Yrotation
    JOINT spine1
    {
      OFFSET 0 23.15396 4.99043
      CHANNELS 3 Zrotation Xrotation Yrotation
      JOINT spine2
      {
        OFFSET 0 20.79997 -5.064912
        CHANNELS 3 Zrotation Xrotation Yrotation
        JOINT neck
        {
          OFFSET 0 14.38658 9.616178
          CHANNELS 3 Zrotation Xrotation Yrotation
          End Site
          {
            OFFSET 0 20 0
          }
        }
      }
      JOINT right_manubrium
      {
        OFFSET -5.722621 16.35077 3.967754
        CHANNELS 3 Zrotation Xrotation Yrotation
        JOINT right_clavicle
        {
          OFFSET -13.16364 1.694482 -4.693211
          CHANNELS 3 Zrotation Xrotation Yrotation
          JOINT right_humerus
          {
            OFFSET -28.5034 -0.3100689 -2.792744
            CHANNELS 3 Zrotation Xrotation Yrotation
            JOINT right_radius
            {
              OFFSET -25.15693 0.02248979 -1.271978
              CHANNELS 3 Zrotation Xrotation Yrotation
              End Site
              {
                OFFSET -15 0 0
              }
            }
          }
        }
      }
      JOINT left_manubrium
      {
        OFFSET 5.722621 16.35077 3.967754
        CHANNELS 3 Zrotation Xrotation Yrotation
        JOINT left_clavicle
        {
          OFFSET 13.16364 1.694482 -4.693211
          CHANNELS 3 Zrotation Xrotation Yrotation
          JOINT left_humerus
          {
            OFFSET 29.39168 -1.063119 -2.237045
            CHANNELS 3 Zrotation Xrotation Yrotation
            JOINT left_radius
            {
              OFFSET 24.59957 -0.9528479 0.9047498
              CHANNELS 3 Zrotation Xrotation Yrotation
              End Site
              {
                OFFSET 15 -0 -0
              }
            }
          }
        }
      }
    }
  }
}
MOTION
Frames: 19
Frame Time: 0.0416666666667
30.95779 98.32329 251.4085 1.732652 -8.777778 -7.804618 -0.5721083 20.04678 7.307282 -0 16.52495 -0 7.016392 -13.57837 -0.2897574 -1.869177 -22.01867 -6.115705 -0 31.3431 -0 -7.171505 -6.530714 19.55321 -1.724217 -0.7157443 9.619474 -1.417897 10.26846 -2.507698 2.54453 21.9455 5.163175 1.810268 -14.62174 7.313559 1.846559 -20.67303 11.52962 80.80665 22.73407 -6.343653 -0 0 24.70411 -25.12126 14.17012 13.05921 4.559704 -14.94353 -3.15866 -92.56345 21.72374 23.78187 0 0 -12.44795 -2.544962 7.156929 15.7414
31.33225 98.13658 258.0895 1.80325 -8.882111 -7.850429 -1.054489 19.68301 7.007599 -0 21.2099 -0 7.495759 -13.0141 -0.6085906 -2.412334 -21.08373 -6.776251 -0 28.69466 -0 -7.141687 -7.15371 19.31884 -1.905002 -0.7612122 9.38431 -1.577545 9.90705 -2.413481 2.582024 22.06075 5.162309 1.637003 -14.54062 7.511522 1.73417 -20.51969 11.2936 80.99458 22.52097 -6.047139 -0 0 24.69137 -25.06622 14.01446 13.03145 4.453543 -14.44429 -3.154826 -92.43017 22.05444 23.74446 0 0 -11.7514 -2.708804 7.23223 15.98012
31.72486 98.15957 264.777 1.916784 -9.031092 -7.600775 -1.488311 18.38667 6.553721 -0 26.19504 -0 7.842864 -12.10013 -1.175566 -3.143329 -19.07437 -7.517476 -0 26.79336 -0 -7.074636 -7.86297 18.9597 -2.132018 -0.8216434 9.012213 -1.656189 9.602205 -2.439055 2.608164 22.23767 5.178529 1.461743 -14.42815 7.725374 1.720495 -20.09681 11.04519 81.46938 22.46687 -6.277268 -0 0 24.0736 -24.84851 13.91241 12.84762 4.355815 -14.14865 -3.205614 -91.99098 22.44058 23.15485 0 0 -11.39855 -2.755892 7.371297 16.07768
32.12913 98.42279 271.4113 2.06062 -9.201988 -7.067151 -1.848804 16.18704 5.974122 -0 30.97751 -0 8.032561 -10.99949 -1.937326 -3.945535 -16.1632 -8.254143 -0 25.48378 -0 -6.981468 -8.662887 18.49485 -2.385737 -0.8682775 8.50603 -1.653773 9.345794 -2.586504 2.6277 22.46992 5.205985 1.288787 -14.27974 7.9492 1.764776 -19.44811 10.78348 82.18919 22.54724 -6.969209 -0 0 22.96085 -24.48045 13.85059 12.5292 4.289492 -14.06643 -3.306267 -91.2595 22.86695 22.01577 0 0 -11.4191 -2.679526 7.579569 16.01286
32.53819 98.88922 277.941 2.211841 -9.355061 -6.282889 -2.106467 13.12853 5.312493 -0 34.91039 -0 8.032219 -9.919815 -2.815784 -4.688663 -12.57598 -8.910202 -0 24.48394 -0 -6.87788 -9.556891 17.94299 -2.636491 -0.8690108 7.864672 -1.572137 9.117538 -2.860804 2.646107 22.74245 5.236963 1.12219 -14.09594 8.1754 1.807413 -18.63552 10.50492 83.10088 22.72711 -8.028955 -0 0 21.50928 -23.97854 13.81029 12.10804 4.284965 -14.20024 -3.448046 -90.2575 23.30926 20.34247 0 0 -11.84013 -2.471237 7.861632 15.76154
32.94278 99.46404 284.3284 2.346923 -9.454786 -5.297056 -2.244235 9.294993 4.616898 -0 37.46856 -0 7.814823 -9.035128 -3.736089 -5.277767 -8.539318 -9.444038 -0 23.53672 -0 -6.779285 -10.54022 17.32297 -2.857075 -0.8012298 7.094244 -1.416579 8.896654 -3.259924 2.668352 23.03803 5.263706 0.965566 -13.88188 8.396024 1.797588 -17.71932 10.20906 84.15119 22.97073 -9.359096 -0 0 19.86724 -23.36132 13.77398 11.61507 4.36537 -14.54144 -3.619651 -89.01963 23.73736 18.17502 0 0 -12.66432 -2.127476 8.217167 15.31
33.33022 100.0275 290.5545 2.450997 -9.482214 -4.165824 -2.266912 4.849222 3.931359 -0 38.42242 -0 7.372593 -8.437144 -4.644125 -5.673758 -4.257115 -9.850345 -0 22.52561 -0 -6.698116 -11.59169 16.65646 -3.031653 -0.662006 6.21982 -1.197512 8.66943 -3.764496 2.698797 23.34015 5.278258 0.8228345 -13.64891 8.602106 1.712204 -16.74614 9.902799 85.28997 23.24622 -10.87104 -0 0 18.14077 -22.64742 13.72872 11.07161 4.536342 -15.065 -3.806325 -87.60185 24.11951 15.5961 0 0 -13.84952 -1.655111 8.638568 14.66478
33.68425 100.4717 296.6246 2.521543 -9.432792 -2.94803 -2.195063 0.06808854 3.293818 -0 37.82464 -0 6.719133 -8.141414 -5.504918 -5.881776 0.07154312 -10.14372 -0 21.51054 -0 -6.644518 -12.66792 15.97205 -3.156929 -0.4704697 5.292979 -0.9308394 8.429765 -4.331745 2.742734 23.63131 5.269877 0.7000461 -13.41728 8.78077 1.557324 -15.74946 9.601751 86.46257 23.52538 -12.47874 -0 0 16.39264 -21.85385 13.665 10.48613 4.785631 -15.72727 -3.987046 -86.08835 24.42862 12.74425 0 0 -15.30169 -1.072335 9.112425 13.85285
33.98639 100.7282 302.5734 2.566311 -9.310252 -1.70454 -2.052889 -4.671889 2.734964 -0 35.92106 -0 5.88477 -8.11333 -6.295535 -5.932415 4.241147 -10.34292 -0 20.69411 -0 -6.62637 -13.70625 15.30557 -3.239554 -0.262475 4.387673 -0.636294 8.17743 -4.899418 2.806902 23.89246 5.224491 0.6057649 -13.21509 8.914803 1.359791 -14.7541 9.327778 87.606 23.78449 -14.09378 -0 0 14.65498 -20.99552 13.57486 9.856492 5.088357 -16.46965 -4.135283 -84.58554 24.65034 9.805788 0 0 -16.88567 -0.4062882 9.622544 12.91624
34.21884 100.7754 308.4601 2.594433 -9.124532 -0.4975458 -1.85618 -9.002298 2.275517 -0 33.04029 -0 4.907898 -8.296965 -7.002128 -5.863974 8.069799 -10.46346 -0 20.31129 -0 -6.646505 -14.64189 14.69336 -3.290297 -0.07512357 3.575874 -0.3327813 7.916882 -5.406423 2.896799 24.1083 5.129883 0.5478722 -13.06837 8.988577 1.151971 -13.78022 9.101006 88.66073 24.00859 -15.63584 -0 0 12.94558 -20.08717 13.45218 9.17952 5.41614 -17.23218 -4.227623 -83.19468 24.7879 6.96837 0 0 -18.46101 0.312722 10.15299 11.90176
34.36775 100.629 314.3548 2.607467 -8.895805 0.6123662 -1.605553 -12.65718 1.9285 -0 29.52548 -0 3.828265 -8.636095 -7.617171 -5.709028 11.42056 -10.517 -0 20.53621 -0 -6.700164 -15.419 14.17031 -3.316473 0.0683145 2.904068 -0.03493434 7.657764 -5.812227 3.013164 24.27452 4.981642 0.5300407 -12.99086 8.994236 0.9597112 -12.84937 8.933172 89.58255 24.19375 -17.03937 -0 0 11.2864 -19.14707 13.29361 8.462526 5.742417 -17.96305 -4.25242 -81.99301 24.85927 4.384052 0 0 -19.90611 1.054143 10.68939 10.85545
34.42603 100.3325 320.3203 2.596937 -8.66338 1.570449 -1.284125 -15.45396 1.708357 -0 25.7591 -0 2.688091 -9.07882 -8.132242 -5.489118 14.16927 -10.51267 -0 21.49076 -0 -6.774121 -15.97797 13.78207 -3.316036 0.1626527 2.391163 0.2455823 7.417888 -6.097875 3.150417 24.40208 4.784626 0.5513065 -12.98153 8.932111 0.802008 -11.99408 8.827917 90.33804 24.3452 -18.23887 -0 0 9.721339 -18.20145 13.09822 7.731158 6.038032 -18.61121 -4.211314 -81.04684 24.89226 2.186293 0 0 -21.09851 1.781575 11.21791 9.829561
34.39512 99.95349 326.3965 2.547095 -8.489816 2.331466 -0.8594388 -17.23646 1.636523 -0 22.20002 -0 1.535146 -9.575273 -8.531758 -5.215151 16.16702 -10.45763 -0 23.28678 -0 -6.84755 -16.24119 13.59526 -3.275951 0.2177618 2.03734 0.4974802 7.224747 -6.258258 3.297248 24.51696 4.55121 0.6074332 -13.02739 8.808108 0.6951765 -11.26349 8.783886 90.89487 24.47454 -19.15331 -0 0 8.323841 -17.28622 12.86708 7.030612 6.265865 -19.11685 -4.116615 -80.42977 24.92158 0.5191113 0 0 -21.88995 2.447111 11.72475 8.890188
34.28355 99.58078 332.5938 2.442286 -8.442457 2.861288 -0.3007792 -17.88355 1.729422 -0 19.29669 -0 0.4167301 -10.08239 -8.796514 -4.891834 17.26797 -10.35693 -0 26.00036 -0 -6.898528 -16.13323 13.67917 -3.179286 0.2510482 1.832221 0.7104105 7.107304 -6.296699 3.440306 24.65024 4.297104 0.6925475 -13.11014 8.631249 0.6516833 -10.71099 8.796584 91.22458 24.59556 -19.70171 -0 0 7.177127 -16.44039 12.60364 6.413385 6.388681 -19.42278 -3.985868 -80.20942 24.98078 -0.4848959 0 0 -22.13579 3.000659 12.19872 8.104517
34.10307 99.31204 338.8972 2.275355 -8.560522 3.136962 0.3919309 -17.36331 1.974701 -0 17.31824 -0 -0.6318787 -10.57374 -8.91253 -4.524699 17.39162 -10.21387 -0 29.57998 -0 -6.91349 -15.62433 14.06984 -3.017813 0.2792484 1.761197 0.8769394 7.081487 -6.221762 3.56873 24.8228 4.037251 0.800475 -13.21418 8.412326 0.6741458 -10.37398 8.859021 91.31273 24.71845 -19.83474 -0 0 6.343292 -15.69817 12.31333 5.923181 6.386456 -19.49861 -3.834857 -80.41725 25.08767 -0.7572727 0 0 -21.7574 3.408587 12.63402 7.515648
33.86603 99.23037 345.2733 2.052703 -8.835984 3.148607 1.170196 -15.75004 2.317892 -0 16.26525 -0 -1.590782 -11.04415 -8.871547 -4.126193 16.53068 -10.03248 -0 33.75222 -0 -6.888627 -14.75578 14.75394 -2.800526 0.3162942 1.810707 0.991252 7.141634 -6.043193 3.674759 25.03721 3.786252 0.9251785 -13.33052 8.164468 0.7503935 -10.27091 8.961834 91.1582 24.8461 -19.53966 -0 0 5.860368 -15.09481 12.00137 5.596325 6.266844 -19.35087 -3.673743 -81.04015 25.23431 -0.3094341 0 0 -20.76603 3.661242 13.02911 7.132032
33.58592 99.37475 351.6743 1.797277 -9.212312 2.904904 1.939536 -13.2045 2.668024 -0 15.8748 -0 -2.451193 -11.5085 -8.664974 -3.718823 14.71559 -9.820821 -0 37.96703 -0 -6.822131 -13.64158 15.67423 -2.555936 0.3756332 1.971546 1.046034 7.259575 -5.768186 3.751453 25.27766 3.561573 1.060564 -13.45662 7.904561 0.8515639 -10.41179 9.092985 90.76445 24.97366 -18.82375 -0 0 5.760195 -14.6795 11.67058 5.474515 6.065991 -19.01862 -3.507389 -82.02912 25.38744 0.7849142 0 0 -19.24856 3.769181 13.38391 6.931982
33.27923 99.71974 358.0433 1.544653 -9.603937 2.436865 2.590785 -9.937528 2.927314 -0 15.7277 -0 -3.210957 -11.99252 -8.283833 -3.330859 11.9974 -9.591944 -0 41.50705 -0 -6.707688 -12.43816 16.74827 -2.324379 0.4696751 2.237688 1.033039 7.39349 -5.401672 3.792026 25.51697 3.382713 1.200787 -13.5943 7.651647 0.9387451 -10.80221 9.238734 90.1378 25.08987 -17.70535 -0 0 6.071651 -14.5103 11.32113 5.602776 5.837206 -18.55964 -3.337744 -83.31226 25.49948 2.414822 0 0 -17.33579 3.755882 13.69853 6.875287
32.9662 100.1823 364.3237 1.328248 -9.933529 1.792729 3.048404 -6.164357 3.032118 -0 15.4541 -0 -3.872372 -12.51237 -7.727281 -2.984526 8.469636 -9.36205 -0 43.77524 -0 -6.537274 -11.28389 17.89438 -2.14015 0.6037709 2.59986 0.9482538 7.506256 -4.951544 3.792085 25.7292 3.265047 1.341522 -13.74724 7.421774 0.9786752 -11.43497 9.386162 89.29726 25.17929 -16.22094 -0 0 6.800031 -14.62669 10.95208 6.007238 5.62855 -18.03021 -3.166386 -84.81046 25.52593 4.457489 0 0 -15.16181 3.650545 13.97368 6.918254
